<?xml version="1.0" encoding="utf-8"?>
<!-- Generator: Adobe Illustrator 16.0.0, SVG Export Plug-In . SVG Version: 6.00 Build 0)  -->
<!DOCTYPE svg PUBLIC "-//W3C//DTD SVG 1.1//EN" "http://www.w3.org/Graphics/SVG/1.1/DTD/svg11.dtd">
<svg version="1.1" id="Layer_1" xmlns="http://www.w3.org/2000/svg" xmlns:xlink="http://www.w3.org/1999/xlink" x="0px" y="0px"
	 width="595.28px" height="419.53px" viewBox="0 0 595.28 419.53" enable-background="new 0 0 595.28 419.53" xml:space="preserve">
<g>
	<g>
		<g>
			<path fill="#FFFFFF" d="M91.929,164.827c0-34.349,27.837-62.192,62.181-62.192c34.352,0,62.184,27.844,62.184,62.192
				c0,34.347-27.832,62.179-62.184,62.179C119.766,227.006,91.929,199.173,91.929,164.827"/>
			<path fill="#2B2F6F" d="M135.46,183.741l2.604-7.814h22.217l9.064-27.234h-22.228l1.688-5.064h33.337l9.044-27.23h-60.658
				l-27.74,83.548c0.366,0.516,0.726,1.017,1.098,1.519l27.744-83.551h57.455l-8.05,24.198h-33.333l-2.679,8.086h22.211l-8.04,24.21
				h-22.215l-3.624,10.86h79.484c0.17-0.492,0.345-0.994,0.519-1.528H135.46"/>
			<path fill="#2B2F6F" d="M135.543,172.28h22.221l6.64-19.941h-22.232l4.104-12.355h33.333l6.64-19.93h-53.185l-27.718,83.332
				c1.081,1.387,2.21,2.706,3.417,3.949h92.725c5.375-5.737,9.665-12.475,12.578-19.928h-83.544L135.543,172.28"/>
			<path fill="#FFFFFF" d="M80.779,122.444c14.56-24.907,39.871-39.619,66.611-41.715l0.129-6.866l5.823,6.451l5.834,6.462
				l-6.068,6.21l-6.059,6.243l0.121-6.908c-22.702,2.106-44.094,14.756-56.461,35.931c-12.873,22.036-12.916,48.012-2.438,69.316
				l-7.825-1.964l-2.37,7.313C65.815,178.218,65.826,148.018,80.779,122.444"/>
			<path fill="#FFFFFF" d="M77.707,216.854l2.673-8.259l2.691-8.285l8.42,2.159l8.421,2.107l-5.588,3.112
				c5.818,8.173,13.415,15.314,22.648,20.703c33.746,19.711,76.754,9.377,98.018-22.91l2.285,8.144l7.139-1.529
				c-24.645,37.131-74.279,48.996-113.239,26.238c-11.099-6.504-20.158-15.105-26.985-25.047L77.707,216.854"/>
			<path fill="#FFFFFF" d="M217.45,200.614l-2.351-8.371l5.418,3.275c15.428-33.77,3.046-74.383-29.675-93.526
				c-10.195-5.96-21.213-9.181-32.253-9.846l5.893-6.069l-4.89-5.402c12.673,0.84,25.338,4.529,37.054,11.373
				c38.269,22.363,52.457,70.125,33.771,109.438l6.407,3.845l-8.502,1.819l-8.502,1.836L217.45,200.614"/>
			<polyline fill="#FFFFFF" points="258.859,116.878 302.532,116.878 302.532,134.396 278.517,134.396 278.517,152.459 
				299.549,152.459 299.549,169.965 278.517,169.965 278.517,190.191 303.503,190.191 303.503,207.688 258.859,207.688 
				258.859,116.878 			"/>
			<path fill="#FFFFFF" d="M330.527,176.887v6.722c0,4.867,1.07,9.42,6.614,9.42c4.497,0,6.832-3.056,6.832-7.039
				c0-7.969-8.011-13.076-15.596-19.32c-8.11-6.702-15.806-11.951-15.806-25.791c0-17.855,9.397-25.463,25.094-25.463
				c17.103,0,24.567,8.873,24.567,22.845v8.174h-18.357v-4.878c0-4.553-0.643-10.009-6.21-10.009c-4.16,0-6.714,2.609-6.714,6.811
				c0,5.468,8.537,11.361,16.328,18.074c7.488,6.482,16.339,11.252,16.339,29.558c0,8.742-6.188,23.17-26.696,23.17
				c-19.427,0-25.396-13.063-25.396-22.504v-9.769H330.527"/>
			<polyline fill="#FFFFFF" points="368.432,116.878 413.488,116.878 413.488,134.386 400.793,134.386 400.793,207.688 
				381.138,207.688 381.138,134.386 368.432,134.386 368.432,116.878 			"/>
			<path fill="#FFFFFF" d="M476.978,141.676c0-17.747,10.675-26.26,25.301-26.26c14.636,0,25.321,8.513,25.321,26.26v8.394h-19.656
				v-10.217c0-3.066,0-8.305-5.665-8.305c-5.656,0-5.656,5.239-5.656,8.305v44.88c0,2.392,0,8.296,5.656,8.296
				c5.665,0,5.665-5.905,5.665-8.296v-13.304H527.6v11.482c0,16.142-9.725,26.249-25.321,26.249
				c-15.588,0-25.301-10.106-25.301-26.249V141.676"/>
			<polyline fill="#FFFFFF" points="424.054,116.878 467.723,116.878 467.723,134.386 443.699,134.386 443.699,152.459 
				464.741,152.459 464.741,169.965 443.699,169.965 443.699,190.191 468.694,190.191 468.694,207.688 424.054,207.688 
				424.054,116.878 			"/>
		</g>
	</g>
	<g>
		<path fill="#FFFFFF" d="M58.034,295.473H52.37l-2.25-5.852H39.807l-2.118,5.852h-5.523l10.042-25.77h5.5L58.034,295.473z
			 M48.451,285.277l-3.558-9.561l-3.477,9.561H48.451z"/>
		<path fill="#FFFFFF" d="M59.392,269.703h5.202v13.959c0,2.215,0.066,3.646,0.186,4.313c0.229,1.047,0.759,1.887,1.594,2.541
			c0.84,0.635,1.992,0.959,3.438,0.959c1.484,0,2.598-0.314,3.34-0.914c0.759-0.59,1.211-1.344,1.353-2.217
			c0.165-0.895,0.235-2.348,0.235-4.377v-14.264h5.212v13.545c0,3.09-0.147,5.281-0.431,6.547c-0.279,1.289-0.803,2.371-1.556,3.242
			c-0.753,0.875-1.768,1.584-3.034,2.086c-1.267,0.523-2.914,0.797-4.956,0.797c-2.466,0-4.327-0.295-5.604-0.85
			c-1.271-0.57-2.263-1.311-3.006-2.217c-0.741-0.906-1.233-1.879-1.462-2.871c-0.35-1.465-0.509-3.645-0.509-6.527V269.703z"/>
		<path fill="#FFFFFF" d="M89.86,295.473v-21.404h-7.646v-4.365h20.481v4.365h-7.628v21.404H89.86z"/>
		<path fill="#FFFFFF" d="M102.985,282.756c0-2.629,0.387-4.848,1.179-6.602c0.573-1.332,1.38-2.5,2.395-3.551
			c1.017-1.033,2.124-1.82,3.33-2.322c1.604-0.678,3.46-1.025,5.556-1.025c3.803,0,6.833,1.199,9.125,3.525
			c2.28,2.391,3.409,5.654,3.409,9.844c0,4.17-1.129,7.412-3.388,9.779c-2.259,2.348-5.283,3.516-9.07,3.516
			c-3.836,0-6.882-1.168-9.147-3.516C104.104,290.082,102.985,286.861,102.985,282.756z M108.338,282.582
			c0,2.914,0.677,5.131,2.031,6.625c1.342,1.518,3.056,2.268,5.129,2.268c2.08,0,3.787-0.75,5.107-2.246
			c1.332-1.496,1.993-3.732,1.993-6.723c0-2.959-0.639-5.15-1.942-6.604c-1.284-1.475-3.013-2.195-5.158-2.195
			c-2.144,0-3.875,0.744-5.189,2.217C109.003,277.396,108.338,279.602,108.338,282.582z"/>
		<path fill="#FFFFFF" d="M130.609,295.473v-25.77h7.783l4.677,17.594l4.628-17.594h7.803v25.77h-4.836v-20.291l-5.118,20.291
			h-5.008l-5.098-20.291v20.291H130.609z"/>
		<path fill="#FFFFFF" d="M182.545,295.473h-5.658l-2.254-5.852h-10.294l-2.138,5.852h-5.513l10.031-25.77h5.501L182.545,295.473z
			 M172.961,285.277l-3.546-9.561l-3.481,9.561H172.961z"/>
		<path fill="#FFFFFF" d="M187.063,295.473v-21.404h-7.64v-4.365h20.482v4.365h-7.63v21.404H187.063z"/>
		<path fill="#FFFFFF" d="M201.733,295.473v-25.77h5.208v25.77H201.733z"/>
		<path fill="#FFFFFF" d="M209.473,282.756c0-2.629,0.403-4.848,1.178-6.602c0.589-1.332,1.386-2.5,2.401-3.551
			c1.015-1.033,2.129-1.82,3.33-2.322c1.615-0.678,3.46-1.025,5.561-1.025c3.793,0,6.837,1.199,9.114,3.525
			c2.28,2.391,3.422,5.654,3.422,9.844c0,4.17-1.125,7.412-3.395,9.779c-2.259,2.348-5.282,3.516-9.069,3.516
			c-3.832,0-6.887-1.168-9.137-3.516C210.607,290.082,209.473,286.861,209.473,282.756z M214.836,282.582
			c0,2.914,0.682,5.131,2.021,6.625c1.352,1.518,3.059,2.268,5.134,2.268c2.075,0,3.776-0.75,5.107-2.246
			c1.332-1.496,1.998-3.732,1.998-6.723c0-2.959-0.643-5.15-1.936-6.604c-1.3-1.475-3.024-2.195-5.169-2.195
			c-2.141,0-3.868,0.744-5.196,2.217C215.498,277.396,214.836,279.602,214.836,282.582z"/>
		<path fill="#FFFFFF" d="M237.223,295.473v-25.77h5.064l10.548,17.211v-17.211h4.84v25.77h-5.221l-10.403-16.797v16.797H237.223z"
			/>
		<path fill="#FFFFFF" d="M293.252,292.34l-2.996,3.809c-1.459-0.719-2.873-1.703-4.213-2.957c-1.048,0.949-2.156,1.625-3.324,2.084
			c-1.174,0.438-2.569,0.654-4.191,0.654c-3.209,0-5.621-0.896-7.236-2.697c-1.255-1.395-1.889-3.01-1.889-4.822
			c0-1.658,0.492-3.133,1.486-4.453c0.977-1.32,2.456-2.479,4.415-3.438c-0.89-1.047-1.545-2.041-1.998-2.979
			c-0.442-0.939-0.67-1.836-0.67-2.676c0-1.561,0.627-2.893,1.875-3.973c1.25-1.092,3.03-1.637,5.339-1.637
			c2.226,0,3.973,0.576,5.215,1.703c1.267,1.145,1.884,2.543,1.884,4.17c0,1.045-0.312,2.041-0.928,2.977
			c-0.616,0.941-1.872,1.998-3.76,3.188l3.585,4.729c0.43-0.744,0.787-1.725,1.085-2.938l4.464,1.016
			c-0.435,1.582-0.829,2.729-1.155,3.469c-0.328,0.732-0.685,1.355-1.048,1.846c0.545,0.514,1.261,1.09,2.133,1.693
			C292.192,291.729,292.835,292.143,293.252,292.34z M277.862,283.686c-1.134,0.578-1.993,1.266-2.555,2.072
			c-0.555,0.809-0.84,1.637-0.84,2.467c0,1.08,0.349,1.943,1.054,2.619c0.693,0.68,1.625,1.016,2.799,1.016
			c0.775,0,1.518-0.162,2.237-0.449c0.705-0.314,1.486-0.816,2.335-1.525L277.862,283.686z M279.794,278.316l1.336-1.016
			c0.988-0.756,1.479-1.518,1.479-2.283c0-0.611-0.24-1.146-0.72-1.604c-0.469-0.445-1.107-0.656-1.921-0.656
			c-0.774,0-1.386,0.188-1.844,0.57c-0.449,0.391-0.666,0.859-0.666,1.363c0,0.611,0.369,1.352,1.128,2.227L279.794,278.316z"/>
		<path fill="#FFFFFF" d="M303.7,269.703h9.507c2.149,0,3.787,0.174,4.909,0.49c1.507,0.436,2.808,1.244,3.887,2.379
			c1.081,1.135,1.898,2.533,2.466,4.17c0.559,1.65,0.841,3.691,0.841,6.104c0,2.105-0.263,3.949-0.797,5.49
			c-0.632,1.875-1.56,3.393-2.75,4.549c-0.916,0.875-2.128,1.561-3.666,2.053c-1.146,0.359-2.687,0.535-4.607,0.535H303.7V269.703z
			 M308.905,274.068v17.082h3.887c1.452,0,2.499-0.088,3.144-0.264c0.849-0.195,1.549-0.557,2.096-1.068
			c0.565-0.514,1.015-1.332,1.374-2.488c0.349-1.16,0.523-2.73,0.523-4.725c0-1.998-0.175-3.504-0.523-4.586
			c-0.359-1.059-0.852-1.9-1.485-2.5c-0.632-0.6-1.429-1.004-2.409-1.223c-0.722-0.152-2.153-0.229-4.271-0.229H308.905z"/>
		<path fill="#FFFFFF" d="M328.192,295.473v-25.77h5.205v25.77H328.192z"/>
		<path fill="#FFFFFF" d="M348.983,285.996v-4.344h11.21v10.262c-1.092,1.059-2.664,1.998-4.736,2.793
			c-2.063,0.809-4.159,1.213-6.276,1.213c-2.695,0-5.054-0.568-7.063-1.703s-3.504-2.742-4.518-4.855
			c-1.004-2.088-1.507-4.379-1.507-6.855c0-2.695,0.568-5.064,1.691-7.148c1.112-2.096,2.762-3.701,4.934-4.803
			c1.659-0.863,3.711-1.299,6.179-1.299c3.195,0,5.696,0.678,7.496,2.02c1.8,1.352,2.947,3.188,3.474,5.566l-5.164,0.959
			c-0.373-1.256-1.047-2.258-2.054-2.99c-1.002-0.732-2.258-1.104-3.752-1.104c-2.283,0-4.084,0.721-5.437,2.162
			c-1.343,1.451-2.008,3.58-2.008,6.408c0,3.076,0.688,5.379,2.04,6.898c1.354,1.525,3.143,2.299,5.339,2.299
			c1.1,0,2.191-0.215,3.284-0.652c1.103-0.414,2.04-0.938,2.826-1.551v-3.275H348.983z"/>
		<path fill="#FFFFFF" d="M363.468,295.473v-25.77h5.204v25.77H363.468z"/>
		<path fill="#FFFFFF" d="M378.071,295.473v-21.404h-7.662v-4.365h20.498v4.365h-7.642v21.404H378.071z"/>
		<path fill="#FFFFFF" d="M413.466,295.473h-5.665l-2.246-5.852h-10.307l-2.126,5.852h-5.523l10.042-25.77h5.502L413.466,295.473z
			 M403.872,285.277l-3.547-9.561l-3.481,9.561H403.872z"/>
		<path fill="#FFFFFF" d="M414.995,295.473V269.91h5.203v21.24h12.937v4.322H414.995z"/>
		<path fill="#FFFFFF" d="M435.318,295.473v-25.77h5.204v25.77H435.318z"/>
		<path fill="#FFFFFF" d="M441.889,295.473v-4.693l13.532-16.711h-12.006v-4.365h18.871v4.049l-14.122,17.398h14.668v4.322H441.889z
			"/>
		<path fill="#FFFFFF" d="M487.991,295.473h-5.664l-2.249-5.852h-10.304l-2.129,5.852h-5.512l10.029-25.77h5.502L487.991,295.473z
			 M478.408,285.277l-3.558-9.561l-3.482,9.561H478.408z"/>
		<path fill="#FFFFFF" d="M492.521,295.473v-21.404h-7.652v-4.365h20.477v4.365h-7.63v21.404H492.521z"/>
		<path fill="#FFFFFF" d="M507.167,295.473v-25.77h5.218v25.77H507.167z"/>
		<path fill="#FFFFFF" d="M514.917,282.756c0-2.629,0.392-4.848,1.178-6.602c0.59-1.332,1.385-2.5,2.402-3.551
			c1.015-1.033,2.126-1.82,3.328-2.322c1.605-0.678,3.46-1.025,5.567-1.025c3.798,0,6.833,1.199,9.103,3.525
			c2.291,2.391,3.427,5.654,3.427,9.844c0,4.17-1.136,7.412-3.396,9.779c-2.258,2.348-5.294,3.516-9.068,3.516
			c-3.833,0-6.889-1.168-9.146-3.516C516.051,290.082,514.917,286.861,514.917,282.756z M520.275,282.582
			c0,2.914,0.678,5.131,2.028,6.625c1.345,1.518,3.059,2.268,5.131,2.268c2.075,0,3.777-0.75,5.11-2.246
			c1.34-1.496,1.986-3.732,1.986-6.723c0-2.959-0.646-5.15-1.933-6.604c-1.3-1.475-3.023-2.195-5.164-2.195
			c-2.138,0-3.872,0.744-5.185,2.217C520.931,277.396,520.275,279.602,520.275,282.582z"/>
		<path fill="#FFFFFF" d="M542.661,295.473v-25.77h5.074l10.535,17.211v-17.211h4.844v25.77h-5.228l-10.391-16.797v16.797H542.661z"
			/>
	</g>
</g>
</svg>
