<svg width="1024" height="1024" xmlns="http://www.w3.org/2000/svg">

 <g>
  <title>background</title>
  <rect fill="none" id="canvas_background" height="402" width="582" y="-1" x="-1"/>
 </g>
 <g>
  <title>Layer 1</title>
  <path id="svg_3" fill="#E74C3C" d="m146.901,249.004l0,714.996c0,33 27,60 60,60l613.857,0c33,0 60,-27 60,-60l0,-904c0,-33 -27,-60 -60,-60l-424.852,0"/>
  <path id="svg_5" fill="#C0392B" d="m146.901,249.004l189.005,0c33,0 60,-27 60,-60l0,-189.004"/>
  <path id="svg_7" fill="#262626" d="m81.83,670.833l65.071,0l0,-85.833l-70.946,88.375l0.012,0c1.2,-1.57 3.231,-2.542 5.863,-2.542z"/>
  <path id="svg_8" fill="#262626" d="m945.83,670.833l-65.071,0l0,-85.833l70.946,88.375l-0.012,0c-1.2,-1.57 -3.231,-2.542 -5.863,-2.542z"/>
  <path id="svg_9" fill="#C0392B" d="m884.273,861.471c-1.934,5.149 -8.015,9.362 -13.515,9.362l-713.857,0c-5.5,0 -11.582,-4.213 -13.514,-9.362l-68.043,-181.276c-1.933,-5.149 0.986,-9.362 6.486,-9.362l864,0c5.5,0 8.419,4.213 6.486,9.362l-68.043,181.276z"/>
  <path id="svg_11" fill="#FFFFFF" d="m335.251,818.323c0,-5.013 1.484,-8.881 4.454,-11.606c2.97,-2.724 7.287,-4.087 12.955,-4.087c5.395,0 9.535,1.363 12.424,4.087c2.888,2.726 4.332,6.594 4.332,11.606c0,4.903 -1.485,8.732 -4.455,11.483c-2.971,2.751 -7.069,4.127 -12.301,4.127c-5.395,0 -9.645,-1.362 -12.75,-4.086c-3.106,-2.724 -4.659,-6.565 -4.659,-11.524z"/>
  <path id="svg_12" fill="#FFFFFF" d="m476.241,750.402c0,13.351 -3.938,23.662 -11.811,30.937c-7.874,7.273 -19.058,10.911 -33.552,10.911l-9.072,0l0,39.641l-32.284,0l0,-119.495l41.356,0c15.093,0 26.427,3.297 34.001,9.89c7.574,6.594 11.362,15.966 11.362,28.116zm-54.434,15.53l5.885,0c4.85,0 8.705,-1.361 11.565,-4.087c2.86,-2.724 4.291,-6.483 4.291,-11.279c0,-8.063 -4.469,-12.097 -13.404,-12.097l-8.337,0l0,27.463z"/>
  <path id="svg_13" fill="#FFFFFF" d="m596.716,769.609c0,19.943 -5.488,35.31 -16.469,46.098c-10.98,10.789 -26.414,16.184 -46.302,16.184l-38.66,0l0,-119.495l41.357,0c19.179,0 33.987,4.903 44.423,14.712c10.434,9.808 15.651,23.976 15.651,42.501zm-33.51,1.145c0,-10.952 -2.166,-19.07 -6.498,-24.356c-4.332,-5.285 -10.912,-7.929 -19.738,-7.929l-9.399,0l0,66.94l7.192,0c9.809,0 17,-2.847 21.578,-8.541c4.576,-5.693 6.865,-14.398 6.865,-26.114z"/>
  <path id="svg_14" fill="#FFFFFF" d="m649.925,831.891l-31.793,0l0,-119.495l70.617,0l0,25.909l-38.824,0l0,22.804l35.801,0l0,25.909l-35.801,0l0,44.873z"/>
  <path id="svg_17" fill="#FFFFFF" d="m729.983,369.821c0,8.25 -9,15 -20,15l-395.131,0c-11,0 -20,-6.75 -20,-15s9,-15 20,-15l395.132,0c10.999,0 19.999,6.75 19.999,15z"/>
  <path id="svg_19" fill="#FFFFFF" d="m729.148,459.821c0,8.25 -9,15 -20,15l-395.131,0c-11,0 -20,-6.75 -20,-15s9,-15 20,-15l395.132,0c10.999,0 19.999,6.75 19.999,15z"/>
  <path id="svg_21" fill="#FFFFFF" d="m729.983,550.016c0,8.25 -9,15 -20,15l-395.131,0c-11,0 -20,-6.75 -20,-15s9,-15 20,-15l395.132,0c10.999,0 19.999,6.75 19.999,15z"/>
 </g>
</svg>