<svg width="295" height="295" xmlns="http://www.w3.org/2000/svg">
 <title/>
 <desc/>

 <g>
  <title>background</title>
  <rect fill="none" id="canvas_background" height="402" width="582" y="-1" x="-1"/>
 </g>
 <g>
  <title>Layer 1</title>
  <path fill-opacity="0.6" id="Shape" fill="#007fff" d="m278.527,79.946c-10.324,-20.023 -25.38,-37.704 -43.538,-51.132c-2.665,-1.97 -6.421,-1.407 -8.392,1.257c-1.971,2.664 -1.407,6.421 1.257,8.392c16.687,12.34 30.521,28.586 40.008,46.983c9.94,19.277 14.98,40.128 14.98,61.976c0,74.671 -60.75,135.421 -135.421,135.421c-74.671,0 -135.421,-60.75 -135.421,-135.422c0,-74.672 60.75,-135.421 135.421,-135.421c3.313,0 6,-2.687 6,-6c0,-3.313 -2.687,-6 -6,-6c-81.288,0 -147.421,66.133 -147.421,147.421c0,81.288 66.133,147.421 147.421,147.421c81.288,0 147.421,-66.133 147.421,-147.421c0,-23.444 -5.641,-46.776 -16.315,-67.475z"/>
  <path fill-opacity="0.75" id="Shape" fill="#ff0000" d="m109.699,78.969c-1.876,1.067 -3.035,3.059 -3.035,5.216l0,131.674c0,3.314 2.687,6 6,6c3.313,0 6,-2.686 6,-6l0,-121.119l88.833,52.883l-65.324,42.087c-2.785,1.795 -3.589,5.508 -1.794,8.293c1.796,2.786 5.508,3.59 8.294,1.794l73.465,-47.333c1.746,-1.125 2.786,-3.073 2.749,-5.15c-0.037,-2.077 -1.145,-3.987 -2.93,-5.05l-106.224,-63.235c-1.856,-1.103 -4.158,-1.127 -6.034,-0.06z"/>
 </g>
</svg>